{
  "accessors": [
    {
      "bufferView": 2,
      "componentType": 5126,
      "count": 16986,
      "max": [
        50.48828125,
        59.814453125,
        36.962894439697266
      ],
      "min": [
        -50.68359375,
        -94.7265625,
        -15.051260948181152
      ],
      "type": "VEC3"
    },
    {
      "bufferView": 2,
      "byteOffset": 203832,
      "componentType": 5126,
      "count": 16986,
      "max": [
        1.0,
        1.0,
        1.0
      ],
      "min": [
        -1.0,
        -1.0,
        -1.0
      ],
      "type": "VEC3"
    },
    {
      "bufferView": 1,
      "componentType": 5126,
      "count": 16986,
      "max": [
        607.5,
        607.5
      ],
      "min": [
        -669.0,
        -669.0
      ],
      "type": "VEC2"
    },
    {
      "bufferView": 0,
      "componentType": 5125,
      "count": 35163,
      "type": "SCALAR"
    },
    {
      "bufferView": 2,
      "byteOffset": 407664,
      "componentType": 5126,
      "count": 7709,
      "max": [
        50.68359375,
        54.638675689697266,
        30.2002010345459
      ],
      "min": [
        -50.927734375,
        -100.0,
        -16.235342025756836
      ],
      "type": "VEC3"
    },
    {
      "bufferView": 2,
      "byteOffset": 500172,
      "componentType": 5126,
      "count": 7709,
      "max": [
        1.0,
        1.0,
        1.0
      ],
      "min": [
        -1.0,
        -1.0,
        -1.0
      ],
      "type": "VEC3"
    },
    {
      "bufferView": 1,
      "byteOffset": 135888,
      "componentType": 5126,
      "count": 7709,
      "max": [
        676.0,
        676.0
      ],
      "min": [
        -676.0,
        -676.0
      ],
      "type": "VEC2"
    },
    {
      "bufferView": 0,
      "byteOffset": 140652,
      "componentType": 5125,
      "count": 15036,
      "type": "SCALAR"
    },
    {
      "bufferView": 2,
      "byteOffset": 592680,
      "componentType": 5126,
      "count": 686,
      "max": [
        35.0341796875,
        59.814453125,
        7.794198989868164
      ],
      "min": [
        -35.25390625,
        0.9399421811103821,
        -8.123769760131836
      ],
      "type": "VEC3"
    },
    {
      "bufferView": 2,
      "byteOffset": 600912,
      "componentType": 5126,
      "count": 686,
      "max": [
        1.0,
        1.0,
        1.0
      ],
      "min": [
        -1.0,
        -0.12538756430149078,
        -1.0
      ],
      "type": "VEC3"
    },
    {
      "bufferView": 1,
      "byteOffset": 197560,
      "componentType": 5126,
      "count": 686,
      "max": [
        0.77734375,
        0.8719482421875
      ],
      "min": [
        0.35009765625,
        0.0927734375
      ],
      "type": "VEC2"
    },
    {
      "bufferView": 0,
      "byteOffset": 200796,
      "componentType": 5125,
      "count": 2244,
      "type": "SCALAR"
    },
    {
      "bufferView": 2,
      "byteOffset": 609144,
      "componentType": 5126,
      "count": 362,
      "max": [
        7.208251953125,
        30.4687442779541,
        37.304691314697266
      ],
      "min": [
        -7.208251953125,
        14.550777435302734,
        24.279787063598633
      ],
      "type": "VEC3"
    },
    {
      "bufferView": 2,
      "byteOffset": 613488,
      "componentType": 5126,
      "count": 362,
      "max": [
        0.999935507774353,
        1.0,
        0.9997476935386658
      ],
      "min": [
        -0.999935507774353,
        -1.0,
        -0.9997476935386658
      ],
      "type": "VEC3"
    },
    {
      "bufferView": 1,
      "byteOffset": 203048,
      "componentType": 5126,
      "count": 362,
      "max": [
        5.78515625,
        2.6982421875
      ],
      "min": [
        0.509765625,
        0.75439453125
      ],
      "type": "VEC2"
    },
    {
      "bufferView": 0,
      "byteOffset": 209772,
      "componentType": 5125,
      "count": 588,
      "type": "SCALAR"
    }
  ],
  "asset": {
    "extras": {
      "author": "lightwarrior (https://sketchfab.com/lightwarrior)",
      "license": "CC-BY-4.0 (http://creativecommons.org/licenses/by/4.0/)",
      "source": "https://sketchfab.com/3d-models/victory-class-star-destroyer-b8cc09d62b154fc8bc26ca9bc1a456ae",
      "title": "Victory-Class Star Destroyer"
    },
    "generator": "Sketchfab-12.45.0",
    "version": "2.0"
  },
  "bufferViews": [
    {
      "buffer": 0,
      "byteLength": 212124,
      "name": "floatBufferViews",
      "target": 34963
    },
    {
      "buffer": 0,
      "byteLength": 205944,
      "byteOffset": 212124,
      "byteStride": 8,
      "name": "floatBufferViews",
      "target": 34962
    },
    {
      "buffer": 0,
      "byteLength": 617832,
      "byteOffset": 418068,
      "byteStride": 12,
      "name": "floatBufferViews",
      "target": 34962
    }
  ],
  "buffers": [
    {
      "byteLength": 1035900,
      "uri": "scene.bin"
    }
  ],
  "images": [
    {
      "uri": "textures/Tex_0016_0.dds_baseColor.png"
    },
    {
      "uri": "textures/Tex_0016_0.dds_emissive.png"
    },
    {
      "uri": "textures/Tex_0020_0.dds_baseColor.png"
    },
    {
      "uri": "textures/Tex_0024_0.dds_baseColor.png"
    }
  ],
  "materials": [
    {
      "doubleSided": true,
      "emissiveFactor": [
        1.0,
        1.0,
        1.0
      ],
      "emissiveTexture": {
        "index": 1
      },
      "name": "Tex_0016_0.dds",
      "pbrMetallicRoughness": {
        "baseColorFactor": [
          0.5,
          0.5,
          0.5,
          1.0
        ],
        "baseColorTexture": {
          "index": 0
        },
        "roughnessFactor": 0.593
      }
    },
    {
      "doubleSided": true,
      "name": "Tex_0020_0.dds",
      "pbrMetallicRoughness": {
        "baseColorFactor": [
          0.5,
          0.5,
          0.5,
          1.0
        ],
        "baseColorTexture": {
          "index": 2
        },
        "roughnessFactor": 0.593
      }
    },
    {
      "doubleSided": true,
      "name": "Tex_0016_0.dds_0",
      "pbrMetallicRoughness": {
        "baseColorFactor": [
          0.5,
          0.5,
          0.5,
          1.0
        ],
        "baseColorTexture": {
          "index": 0
        },
        "roughnessFactor": 0.593
      }
    },
    {
      "alphaMode": "BLEND",
      "doubleSided": true,
      "emissiveFactor": [
        1.0,
        1.0,
        1.0
      ],
      "emissiveTexture": {
        "index": 3
      },
      "name": "Tex_0024_0.dds",
      "pbrMetallicRoughness": {
        "baseColorFactor": [
          1.0,
          1.0,
          1.0,
          0.01434105939756158
        ],
        "baseColorTexture": {
          "index": 3
        },
        "metallicFactor": 0.0,
        "roughnessFactor": 0.8929713596497552
      }
    }
  ],
  "meshes": [
    {
      "name": "Mesh_0009_Tex_0016_0.dds_0",
      "primitives": [
        {
          "attributes": {
            "NORMAL": 1,
            "POSITION": 0,
            "TEXCOORD_0": 2
          },
          "indices": 3,
          "material": 0,
          "mode": 4
        }
      ]
    },
    {
      "name": "Mesh_0010_Tex_0020_0.dds_0",
      "primitives": [
        {
          "attributes": {
            "NORMAL": 5,
            "POSITION": 4,
            "TEXCOORD_0": 6
          },
          "indices": 7,
          "material": 1,
          "mode": 4
        }
      ]
    },
    {
      "name": "Mesh_0011_Tex_0016_0.dds_0",
      "primitives": [
        {
          "attributes": {
            "NORMAL": 9,
            "POSITION": 8,
            "TEXCOORD_0": 10
          },
          "indices": 11,
          "material": 2,
          "mode": 4
        }
      ]
    },
    {
      "name": "Mesh_0012_Tex_0024_0.dds_0",
      "primitives": [
        {
          "attributes": {
            "NORMAL": 13,
            "POSITION": 12,
            "TEXCOORD_0": 14
          },
          "indices": 15,
          "material": 3,
          "mode": 4
        }
      ]
    }
  ],
  "nodes": [
    {
      "children": [
        1
      ],
      "matrix": [
        1.0,
        0.0,
        0.0,
        0.0,
        0.0,
        2.220446049250313e-16,
        -1.0,
        0.0,
        0.0,
        1.0,
        2.220446049250313e-16,
        0.0,
        0.0,
        0.0,
        0.0,
        1.0
      ],
      "name": "Sketchfab_model"
    },
    {
      "children": [
        2
      ],
      "matrix": [
        0.02539999969303608,
        0.0,
        0.0,
        0.0,
        0.0,
        0.0,
        0.02539999969303608,
        0.0,
        0.0,
        -0.02539999969303608,
        0.0,
        0.0,
        0.0,
        0.0,
        0.0,
        1.0
      ],
      "name": "Victory-Class Star Destroyer.FBX"
    },
    {
      "children": [
        3,
        5,
        7,
        9
      ],
      "name": "RootNode"
    },
    {
      "children": [
        4
      ],
      "matrix": [
        1.0,
        0.0,
        0.0,
        0.0,
        0.0,
        2.220446049250313e-16,
        -1.0,
        0.0,
        0.0,
        1.0,
        2.220446049250313e-16,
        0.0,
        0.0,
        0.0,
        -9.559717178344727,
        1.0
      ],
      "name": "Mesh_0009"
    },
    {
      "mesh": 0,
      "name": "Mesh_0009_Tex_0016_0.dds_0"
    },
    {
      "children": [
        6
      ],
      "matrix": [
        1.0,
        0.0,
        0.0,
        0.0,
        0.0,
        2.220446049250313e-16,
        -1.0,
        0.0,
        0.0,
        1.0,
        2.220446049250313e-16,
        0.0,
        0.0,
        0.0,
        -9.559717178344727,
        1.0
      ],
      "name": "Mesh_0010"
    },
    {
      "mesh": 1,
      "name": "Mesh_0010_Tex_0020_0.dds_0"
    },
    {
      "children": [
        8
      ],
      "matrix": [
        1.0,
        0.0,
        0.0,
        0.0,
        0.0,
        2.220446049250313e-16,
        -1.0,
        0.0,
        0.0,
        1.0,
        2.220446049250313e-16,
        0.0,
        0.0,
        0.0,
        -9.559717178344727,
        1.0
      ],
      "name": "Mesh_0011"
    },
    {
      "mesh": 2,
      "name": "Mesh_0011_Tex_0016_0.dds_0"
    },
    {
      "children": [
        10
      ],
      "matrix": [
        1.0,
        0.0,
        0.0,
        0.0,
        0.0,
        2.220446049250313e-16,
        -1.0,
        0.0,
        0.0,
        1.0,
        2.220446049250313e-16,
        0.0,
        0.0,
        0.0,
        -9.559717178344727,
        1.0
      ],
      "name": "Mesh_0012"
    },
    {
      "mesh": 3,
      "name": "Mesh_0012_Tex_0024_0.dds_0"
    }
  ],
  "samplers": [
    {
      "magFilter": 9729,
      "minFilter": 9987,
      "wrapS": 10497,
      "wrapT": 10497
    }
  ],
  "scene": 0,
  "scenes": [
    {
      "name": "Sketchfab_Scene",
      "nodes": [
        0
      ]
    }
  ],
  "textures": [
    {
      "sampler": 0,
      "source": 0
    },
    {
      "sampler": 0,
      "source": 1
    },
    {
      "sampler": 0,
      "source": 2
    },
    {
      "sampler": 0,
      "source": 3
    }
  ]
}
